<svg xmlns="http://www.w3.org/2000/svg" viewBox="0 0 512 512" aria-label="Messenger">
  <defs>
    <linearGradient id="messenger-gradient" x1="50%" y1="97.078%" x2="50%" y2="0%">
      <stop offset="0%" stop-color="#0062E0"/>
      <stop offset="100%" stop-color="#19AFFF"/>
    </linearGradient>
  </defs>
  <path fill="url(#messenger-gradient)" d="M256 32C114.6 32 8 135.5 8 273c0 71.9 29.5 134.2 77.5 177.2 4 3.6 6.4 8.6 6.6 14l1.3 44c.4 14 14.9 23.1 27.7 17.5l49-21.6c4.1-1.8 8.7-2.2 13-1 22.6 6.2 46.7 9.5 71.8 9.5 141.4 0 248-103.5 248-241S397.4 32 256 32z"/>
  <path fill="#FFFFFF" d="M102.4 342.9l72.9-115.7c11.6-18.4 36.4-23 53.9-10l58 43.5c5.3 4 12.6 4 17.9-.1l78.3-59.4c10.5-7.9 24.1 4.6 17.1 15.7l-72.9 115.7c-11.6 18.4-36.4 23-53.9 10l-58-43.5c-5.3-4-12.6-4-17.9.1l-78.3 59.4c-10.5 7.9-24.1-4.7-17.1-15.7z"/>
</svg>
